<svg class="border shadow-md dark:border-slate-700" viewBox="0 0 561 748" xmlns="http://www.w3.org/2000/svg" preserveAspectRatio="none" style="width: 561px; height: 748px;"><rect class="bg" id="bg" x="0" y="0" width="561" height="748" fill="#ffffff"/><g transform="rotate(0 280.5 374)"><path id="-1" d="M -190.25 -63.50 S -140.00 -110.25&#10;            0.00 -63.50 85.13 -131.50&#10;            190.25 -63.50 275.38 -110.25&#10;            380.50 -63.50 448.75 -146.50&#10;            570.75 -63.50 655.88 -110.25&#10;            761.00 -63.50 846.13 -110.25&#10;            951.25 -63.50 h 110 V 948 H -190.25 Z" fill="#0D6EFD"/><path id="0" d="M -190.25 30.00 S -105.13 -16.75&#10;            0.00 30.00 85.13 -16.75&#10;            190.25 30.00 275.38 -28.00&#10;            380.50 30.00 465.63 -16.75&#10;            570.75 30.00 570.00 -16.75&#10;            761.00 30.00 846.13 -16.75&#10;            951.25 30.00 h 110 V 948 H -190.25 Z" fill="#0b61e0"/><path id="1" d="M -190.25 123.50 S -105.13 76.75&#10;            0.00 123.50 8.25 76.75&#10;            190.25 123.50 224.50 76.75&#10;            380.50 123.50 465.63 76.75&#10;            570.75 123.50 655.88 76.75&#10;            761.00 123.50 791.25 40.50&#10;            951.25 123.50 h 110 V 948 H -190.25 Z" fill="#0954c3"/><path id="2" d="M -190.25 217.00 S -105.13 170.25&#10;            0.00 217.00 18.25 170.25&#10;            190.25 217.00 201.50 170.25&#10;            380.50 217.00 465.63 152.00&#10;            570.75 217.00 608.00 170.25&#10;            761.00 217.00 846.13 129.00&#10;            951.25 217.00 h 110 V 948 H -190.25 Z" fill="#0747a6"/><path id="3" d="M -190.25 310.50 S -105.13 254.50&#10;            0.00 310.50 85.13 248.50&#10;            190.25 310.50 231.50 263.75&#10;            380.50 310.50 448.75 263.75&#10;            570.75 310.50 655.88 232.50&#10;            761.00 310.50 830.25 221.50&#10;            951.25 310.50 h 110 V 948 H -190.25 Z" fill="#053a89"/><path id="4" d="M -190.25 404.00 S -105.13 357.25&#10;            0.00 404.00 85.13 353.00&#10;            190.25 404.00 237.50 357.25&#10;            380.50 404.00 444.75 357.25&#10;            570.75 404.00 618.00 324.00&#10;            761.00 404.00 846.13 326.00&#10;            951.25 404.00 h 110 V 948 H -190.25 Z" fill="#032d6c"/><path id="5" d="M -190.25 497.50 S -110.00 450.75&#10;            0.00 497.50 21.25 450.75&#10;            190.25 497.50 208.50 450.75&#10;            380.50 497.50 380.75 450.75&#10;            570.75 497.50 655.88 450.75&#10;            761.00 497.50 846.13 450.75&#10;            951.25 497.50 h 110 V 948 H -190.25 Z" fill="#01204f"/><path id="6" d="M -190.25 591.00 S -105.13 514.00&#10;            0.00 591.00 85.13 544.25&#10;            190.25 591.00 191.50 544.25&#10;            380.50 591.00 382.75 544.25&#10;            570.75 591.00 655.88 527.00&#10;            761.00 591.00 846.13 544.25&#10;            951.25 591.00 h 110 V 948 H -190.25 Z" fill="#001332"/><path id="7" d="M -190.25 684.50 S -105.13 637.75&#10;            0.00 684.50 85.13 626.50&#10;            190.25 684.50 248.50 592.50&#10;            380.50 684.50 465.63 607.50&#10;            570.75 684.50 592.00 637.75&#10;            761.00 684.50 799.25 637.75&#10;            951.25 684.50 h 110 V 948 H -190.25 Z" fill="#000615"/></g></svg>